<?xml version="1.0" standalone="no"?>
<!DOCTYPE svg PUBLIC "-//W3C//DTD SVG 20010904//EN"
 "http://www.w3.org/TR/2001/REC-SVG-20010904/DTD/svg10.dtd">
<svg version="1.0" xmlns="http://www.w3.org/2000/svg"
 width="500.000000pt" height="500.000000pt" viewBox="0 0 500.000000 500.000000"
 preserveAspectRatio="xMidYMid meet">

<g transform="translate(0.000000,500.000000) scale(0.100000,-0.100000)"
fill="#000000" stroke="none">
<path d="M130 2495 l0 -2355 2360 0 2360 0 -2 2353 -3 2352 -2357 3 -2358 2 0
-2355z m2489 1738 c256 -254 444 -601 507 -938 28 -150 26 -396 -4 -533 -75
-337 -248 -637 -535 -931 l-82 -84 -89 94 c-282 296 -452 595 -522 919 -15 68
-19 127 -19 295 0 195 2 218 27 317 64 250 179 480 353 703 65 83 237 255 255
255 5 0 54 -44 109 -97z m-1814 -1663 c611 -67 1067 -356 1304 -827 77 -154
138 -360 166 -558 19 -133 38 -422 29 -436 -9 -15 -263 -4 -423 17 -666 88
-1123 461 -1319 1075 -69 215 -110 546 -86 691 5 30 11 38 33 41 53 8 209 7
296 -3z m3773 -3 c17 -12 16 -237 -3 -383 -103 -781 -576 -1283 -1329 -1409
-95 -16 -326 -34 -435 -35 l-54 0 6 198 c5 225 32 392 91 572 179 552 593 905
1206 1030 54 11 135 24 181 29 96 11 318 9 337 -2z"/>
</g>
</svg>
